<svg width="624" height="536" viewBox="0 0 624 536" fill="none" xmlns="http://www.w3.org/2000/svg">
<g clip-path="url(#clip0_218_1657)">
<mask id="mask0_218_1657" style="mask-type:luminance" maskUnits="userSpaceOnUse" x="0" y="0" width="624" height="536">
<path d="M624 0H0V536H624V0Z" fill="white"/>
</mask>
<g mask="url(#mask0_218_1657)">
<path opacity="0.5" d="M430.224 0C313.526 0 242.237 48.7077 239.384 50.6907C239.297 50.7508 239.297 50.7044 239.291 50.8096C239.069 54.3405 228.762 222.397 270.67 297.85C313.025 374.105 398.142 435.136 430.224 435.136C462.305 435.136 551.919 374.129 594.274 297.874C636.198 222.394 621.535 54.2656 621.233 50.8551C621.224 50.7532 621.228 50.8023 621.145 50.7439C618.382 48.8237 547.004 0 430.224 0Z" fill="url(#paint0_radial_218_1657)" fill-opacity="0.32"/>
<path opacity="0.5" d="M430.388 47.2976C339.387 47.2976 283.593 84.9785 280.753 86.9382C280.667 86.9978 280.642 86.9845 280.635 87.0893C280.415 90.6057 272.476 221.523 305.248 280.397C338.468 340.075 405.226 387.839 430.388 387.839C455.55 387.839 525.836 340.094 559.055 280.416C591.842 221.514 580.502 90.5203 580.201 87.1231C580.192 87.0212 580.173 87.0397 580.089 86.9817C577.34 85.0833 521.471 47.2976 430.388 47.2976Z" fill="url(#paint1_radial_218_1657)" fill-opacity="0.32"/>
<path opacity="0.5" d="M430.68 92.7026C365.158 92.7026 324.811 119.958 322.243 121.739C322.157 121.799 322.113 121.823 322.107 121.928C321.895 125.393 316.309 220.678 339.954 263.642C364.038 307.407 412.438 342.433 430.68 342.433C448.922 342.433 499.879 307.421 523.964 263.656C547.623 220.664 539.589 125.3 539.298 121.95C539.29 121.848 539.247 121.827 539.163 121.77C536.623 120.007 496.23 92.7026 430.68 92.7026Z" fill="url(#paint2_radial_218_1657)" fill-opacity="0.32"/>
<g filter="url(#filter0_d_218_1657)">
<path d="M155.737 78.9919C155.737 75.1306 159.384 72 163.882 72H514.108C518.606 72 522.253 75.1306 522.253 78.9919V495.008C522.253 498.869 518.606 502 514.108 502H163.882C159.384 502 155.737 498.869 155.737 495.008V78.9919Z" fill="white"/>
</g>
<path d="M476.439 359.521H201.552C198.741 359.521 196.462 361.63 196.462 364.232V392.504C196.462 395.106 198.741 397.216 201.552 397.216H476.439C479.252 397.216 481.53 395.106 481.53 392.504V364.232C481.53 361.63 479.252 359.521 476.439 359.521Z" fill="url(#paint3_linear_218_1657)"/>
<path d="M470.608 261.783H206.744C202.19 261.783 198.498 265.475 198.498 270.029V335.995C198.498 340.549 202.19 344.241 206.744 344.241H470.608C475.162 344.241 478.854 340.549 478.854 335.995V270.029C478.854 265.475 475.162 261.783 470.608 261.783Z" stroke="#E2E8F0"/>
<path d="M225.909 323.583C225.909 325.781 225.506 327.473 224.702 328.653C223.899 329.822 222.787 330.406 221.366 330.406C219.946 330.406 218.834 329.822 218.03 328.653C217.227 327.473 216.824 325.781 216.824 323.583C216.824 322.49 216.926 321.522 217.126 320.681C217.34 319.826 217.642 319.109 218.03 318.532C218.433 317.955 218.909 317.514 219.463 317.213C220.028 316.911 220.662 316.76 221.366 316.76C222.787 316.76 223.899 317.352 224.702 318.532C225.506 319.701 225.909 321.385 225.909 323.583ZM223.553 323.583C223.553 322.905 223.515 322.271 223.44 321.68C223.364 321.088 223.239 320.579 223.063 320.153C222.9 319.712 222.679 319.369 222.403 319.116C222.127 318.864 221.781 318.739 221.366 318.739C220.952 318.739 220.601 318.864 220.311 319.116C220.035 319.369 219.809 319.712 219.632 320.153C219.47 320.579 219.35 321.088 219.274 321.68C219.211 322.271 219.18 322.905 219.18 323.583C219.18 324.262 219.211 324.896 219.274 325.487C219.35 326.078 219.47 326.592 219.632 327.032C219.809 327.459 220.035 327.798 220.311 328.05C220.601 328.302 220.952 328.427 221.366 328.427C221.781 328.427 222.127 328.302 222.403 328.05C222.679 327.798 222.9 327.459 223.063 327.032C223.239 326.592 223.364 326.078 223.44 325.487C223.515 324.896 223.553 324.262 223.553 323.583Z" fill="#565B76"/>
<path d="M239.222 328.978H251.001V331.357H239.222V328.978Z" fill="#565B76"/>
<path d="M265.692 328.978H277.472V331.357H265.692V328.978Z" fill="#565B76"/>
<path d="M292.163 328.978H303.943V331.357H292.163V328.978Z" fill="#565B76"/>
<path d="M198.498 300.471H479.494" stroke="#E2E8F0"/>
<path d="M363.43 176.784H314.561C310.625 176.784 307.435 179.975 307.435 183.911V232.78C307.435 236.716 310.625 239.907 314.561 239.907H363.43C367.366 239.907 370.557 236.716 370.557 232.78V183.911C370.557 179.975 367.366 176.784 363.43 176.784Z" fill="white" stroke="#CBD5E1"/>
<path d="M330.24 195.11H347.409L334.786 213.821H317.615L330.24 195.11Z" fill="#007AFF"/>
<path d="M332.686 214.719L327.797 221.966H345.781L358.405 203.255H345.131L337.398 214.719H332.686Z" fill="#312ECB"/>
<g filter="url(#filter1_d_218_1657)">
<path d="M323.998 102H28.2309C25.3398 102 22.9961 104.213 22.9961 106.943V186.65C22.9961 189.38 25.3398 191.593 28.2309 191.593H323.998C326.889 191.593 329.233 189.38 329.233 186.65V106.943C329.233 104.213 326.889 102 323.998 102Z" fill="white"/>
</g>
<path d="M47.8076 129.93C47.8076 127.601 49.6955 125.713 52.0243 125.713H85.7578C88.0866 125.713 89.9745 127.601 89.9745 129.93V163.663C89.9745 165.992 88.0866 167.88 85.7578 167.88H52.0243C49.6955 167.88 47.8076 165.992 47.8076 163.663V129.93Z" fill="#E5E7EB"/>
<path d="M58.7744 141.59L68.8907 146.647L79.0069 141.59C78.9695 140.945 78.687 140.339 78.2173 139.896C77.7477 139.453 77.1264 139.206 76.4807 139.206H61.3006C60.655 139.206 60.0336 139.453 59.564 139.896C59.0944 140.339 58.8118 140.945 58.7744 141.59Z" fill="#565B76"/>
<path d="M79.0116 144.416L68.8915 149.476L58.7715 144.416V151.857C58.7715 152.528 59.0381 153.171 59.5125 153.646C59.9869 154.12 60.6305 154.387 61.3015 154.387H76.4816C77.1525 154.387 77.7961 154.12 78.2705 153.646C78.745 153.171 79.0116 152.528 79.0116 151.857V144.416Z" fill="#565B76"/>
<path d="M112.175 133.768C112.175 131.328 114.154 129.35 116.593 129.35H211.5C213.941 129.35 215.918 131.328 215.918 133.768C215.918 136.208 213.941 138.186 211.5 138.186H116.593C114.154 138.186 112.175 136.208 112.175 133.768Z" fill="#E5E7EB"/>
<mask id="mask1_218_1657" style="mask-type:luminance" maskUnits="userSpaceOnUse" x="326" y="152" width="302" height="160">
<path d="M627.995 152H326.082V312H627.995V152Z" fill="white"/>
</mask>
<g mask="url(#mask1_218_1657)">
<g filter="url(#filter2_d_218_1657)">
<path d="M601.158 161.043H352.919C346.165 161.043 340.69 166.465 340.69 173.153V279.717C340.69 286.404 346.165 291.826 352.919 291.826H601.158C607.911 291.826 613.386 286.404 613.386 279.717V173.153C613.386 166.465 607.911 161.043 601.158 161.043Z" fill="white"/>
</g>
<path d="M403.3 274.609C429.906 274.609 451.474 253.04 451.474 226.435C451.474 199.829 429.906 178.261 403.3 178.261C376.694 178.261 355.126 199.829 355.126 226.435C355.126 253.04 376.694 274.609 403.3 274.609Z" stroke="#E2E8F0"/>
<path d="M369.908 200C366.066 200 362.952 196.886 362.952 193.043H360.169C360.169 198.422 364.529 202.783 369.908 202.783V200ZM376.865 193.043C376.865 196.886 373.75 200 369.908 200V202.783C375.287 202.783 379.647 198.422 379.647 193.043H376.865ZM369.908 186.087C373.75 186.087 376.865 189.201 376.865 193.043H379.647C379.647 187.665 375.287 183.304 369.908 183.304V186.087ZM369.908 183.304C364.529 183.304 360.169 187.665 360.169 193.043H362.952C362.952 189.201 366.066 186.087 369.908 186.087V183.304Z" fill="white"/>
</g>
</g>
<path d="M213.273 288.123C213.057 288.123 212.869 288.106 212.708 288.072C212.547 288.043 212.408 288.007 212.289 287.964V287.107C212.42 287.15 212.554 287.181 212.689 287.203C212.824 287.228 212.977 287.241 213.146 287.241C213.434 287.241 213.667 287.16 213.844 287C214.022 286.839 214.111 286.547 214.111 286.124V278.043H215.165V286.098C215.165 286.521 215.097 286.883 214.961 287.184C214.826 287.488 214.619 287.721 214.339 287.882C214.06 288.043 213.705 288.123 213.273 288.123ZM214.016 276.132C214.016 275.895 214.075 275.722 214.193 275.612C214.316 275.498 214.468 275.44 214.65 275.44C214.824 275.44 214.972 275.498 215.095 275.612C215.222 275.722 215.285 275.895 215.285 276.132C215.285 276.365 215.222 276.539 215.095 276.653C214.972 276.767 214.824 276.824 214.65 276.824C214.468 276.824 214.316 276.767 214.193 276.653C214.075 276.539 214.016 276.365 214.016 276.132ZM223.397 281.509C223.397 282.08 223.323 282.59 223.175 283.039C223.027 283.487 222.813 283.866 222.534 284.175C222.255 284.484 221.916 284.721 221.519 284.886C221.125 285.047 220.679 285.127 220.179 285.127C219.714 285.127 219.286 285.047 218.897 284.886C218.512 284.721 218.178 284.484 217.894 284.175C217.615 283.866 217.397 283.487 217.24 283.039C217.088 282.59 217.012 282.08 217.012 281.509C217.012 280.747 217.141 280.1 217.399 279.566C217.657 279.029 218.025 278.621 218.503 278.341C218.986 278.058 219.559 277.916 220.224 277.916C220.858 277.916 221.413 278.058 221.887 278.341C222.365 278.625 222.735 279.035 222.998 279.573C223.264 280.106 223.397 280.751 223.397 281.509ZM218.104 281.509C218.104 282.067 218.178 282.552 218.326 282.962C218.474 283.373 218.702 283.69 219.011 283.915C219.32 284.139 219.718 284.251 220.205 284.251C220.687 284.251 221.083 284.139 221.392 283.915C221.705 283.69 221.935 283.373 222.083 282.962C222.232 282.552 222.306 282.067 222.306 281.509C222.306 280.954 222.232 280.476 222.083 280.074C221.935 279.668 221.707 279.355 221.398 279.135C221.089 278.915 220.689 278.805 220.198 278.805C219.475 278.805 218.944 279.044 218.605 279.522C218.271 280 218.104 280.662 218.104 281.509ZM226.273 275.123V278.075C226.273 278.244 226.269 278.415 226.26 278.589C226.252 278.758 226.237 278.915 226.216 279.059H226.286C226.43 278.813 226.611 278.608 226.832 278.443C227.056 278.274 227.31 278.147 227.593 278.062C227.877 277.973 228.177 277.929 228.495 277.929C229.053 277.929 229.519 278.018 229.891 278.195C230.268 278.373 230.549 278.648 230.735 279.021C230.926 279.393 231.021 279.875 231.021 280.468V285H229.98V280.538C229.98 279.958 229.847 279.524 229.58 279.236C229.318 278.949 228.914 278.805 228.368 278.805C227.851 278.805 227.439 278.904 227.13 279.103C226.825 279.298 226.605 279.585 226.47 279.966C226.339 280.347 226.273 280.813 226.273 281.363V285H225.219V275.123H226.273ZM236.486 277.916C237.312 277.916 237.936 278.119 238.359 278.525C238.782 278.927 238.994 279.575 238.994 280.468V285H237.953V280.538C237.953 279.958 237.819 279.524 237.553 279.236C237.29 278.949 236.886 278.805 236.34 278.805C235.57 278.805 235.028 279.023 234.715 279.458C234.402 279.894 234.246 280.527 234.246 281.356V285H233.192V278.043H234.042L234.201 279.046H234.258C234.406 278.8 234.595 278.595 234.823 278.43C235.052 278.261 235.308 278.134 235.591 278.049C235.875 277.96 236.173 277.916 236.486 277.916ZM241.006 284.34C241.006 284.044 241.078 283.834 241.222 283.711C241.366 283.584 241.541 283.521 241.749 283.521C241.964 283.521 242.146 283.584 242.294 283.711C242.443 283.834 242.517 284.044 242.517 284.34C242.517 284.632 242.443 284.846 242.294 284.981C242.146 285.112 241.964 285.178 241.749 285.178C241.541 285.178 241.366 285.112 241.222 284.981C241.078 284.846 241.006 284.632 241.006 284.34ZM247.055 285.127C246.175 285.127 245.477 284.826 244.96 284.226C244.448 283.625 244.192 282.732 244.192 281.547C244.192 280.349 244.455 279.446 244.979 278.836C245.504 278.223 246.202 277.916 247.074 277.916C247.442 277.916 247.764 277.965 248.039 278.062C248.314 278.159 248.551 278.291 248.75 278.456C248.949 278.616 249.116 278.8 249.251 279.008H249.328C249.311 278.877 249.294 278.697 249.277 278.468C249.26 278.24 249.251 278.054 249.251 277.91V275.123H250.305V285H249.455L249.296 284.01H249.251C249.12 284.217 248.953 284.405 248.75 284.575C248.551 284.744 248.312 284.879 248.033 284.981C247.758 285.078 247.432 285.127 247.055 285.127ZM247.22 284.251C247.965 284.251 248.492 284.039 248.801 283.616C249.11 283.193 249.264 282.565 249.264 281.731V281.541C249.264 280.656 249.116 279.977 248.82 279.503C248.528 279.029 247.995 278.792 247.22 278.792C246.573 278.792 246.088 279.042 245.767 279.541C245.445 280.036 245.284 280.713 245.284 281.572C245.284 282.427 245.443 283.087 245.76 283.553C246.082 284.018 246.569 284.251 247.22 284.251ZM258.538 281.509C258.538 282.08 258.464 282.59 258.316 283.039C258.168 283.487 257.954 283.866 257.675 284.175C257.396 284.484 257.057 284.721 256.659 284.886C256.266 285.047 255.819 285.127 255.32 285.127C254.854 285.127 254.427 285.047 254.038 284.886C253.653 284.721 253.318 284.484 253.035 284.175C252.755 283.866 252.537 283.487 252.381 283.039C252.229 282.59 252.152 282.08 252.152 281.509C252.152 280.747 252.281 280.1 252.54 279.566C252.798 279.029 253.166 278.621 253.644 278.341C254.126 278.058 254.7 277.916 255.364 277.916C255.999 277.916 256.553 278.058 257.027 278.341C257.506 278.625 257.876 279.035 258.138 279.573C258.405 280.106 258.538 280.751 258.538 281.509ZM253.244 281.509C253.244 282.067 253.318 282.552 253.466 282.962C253.614 283.373 253.843 283.69 254.152 283.915C254.461 284.139 254.859 284.251 255.345 284.251C255.828 284.251 256.223 284.139 256.532 283.915C256.845 283.69 257.076 283.373 257.224 282.962C257.372 282.552 257.446 282.067 257.446 281.509C257.446 280.954 257.372 280.476 257.224 280.074C257.076 279.668 256.847 279.355 256.539 279.135C256.23 278.915 255.83 278.805 255.339 278.805C254.615 278.805 254.084 279.044 253.746 279.522C253.411 280 253.244 280.662 253.244 281.509ZM263.039 277.916C263.631 277.916 264.139 278.047 264.562 278.31C264.985 278.572 265.309 278.94 265.533 279.414C265.757 279.884 265.87 280.434 265.87 281.064V281.718H261.064C261.077 282.535 261.28 283.157 261.674 283.584C262.067 284.012 262.622 284.226 263.337 284.226C263.777 284.226 264.166 284.185 264.505 284.105C264.843 284.025 265.195 283.906 265.559 283.75V284.676C265.207 284.833 264.858 284.947 264.511 285.019C264.168 285.091 263.762 285.127 263.292 285.127C262.624 285.127 262.04 284.992 261.541 284.721C261.045 284.446 260.66 284.044 260.385 283.515C260.11 282.986 259.973 282.338 259.973 281.572C259.973 280.823 260.097 280.176 260.347 279.63C260.601 279.08 260.957 278.657 261.414 278.36C261.875 278.064 262.417 277.916 263.039 277.916ZM263.026 278.779C262.463 278.779 262.014 278.963 261.68 279.332C261.346 279.7 261.147 280.214 261.083 280.874H264.765C264.761 280.459 264.695 280.095 264.568 279.782C264.446 279.465 264.257 279.219 264.003 279.046C263.75 278.868 263.424 278.779 263.026 278.779ZM277.46 280.366C277.46 280.768 277.414 281.162 277.321 281.547C277.232 281.928 277.094 282.273 276.908 282.582C276.722 282.886 276.489 283.13 276.21 283.312C275.935 283.493 275.609 283.584 275.232 283.584C274.839 283.584 274.526 283.47 274.293 283.242C274.06 283.013 273.921 282.742 273.874 282.429H273.817C273.656 282.764 273.419 283.041 273.106 283.261C272.797 283.477 272.416 283.584 271.963 283.584C271.303 283.584 270.793 283.367 270.434 282.931C270.078 282.491 269.9 281.907 269.9 281.179C269.9 280.612 270.013 280.11 270.237 279.674C270.465 279.234 270.785 278.889 271.195 278.64C271.61 278.386 272.099 278.259 272.662 278.259C273.038 278.259 273.404 278.291 273.76 278.354C274.115 278.417 274.399 278.487 274.61 278.563L274.483 281.122C274.479 281.278 274.475 281.399 274.471 281.483C274.466 281.564 274.464 281.627 274.464 281.674C274.464 282.131 274.545 282.44 274.706 282.601C274.871 282.757 275.069 282.835 275.302 282.835C275.586 282.835 275.823 282.725 276.013 282.505C276.208 282.281 276.356 281.983 276.458 281.61C276.559 281.234 276.61 280.817 276.61 280.36C276.61 279.552 276.447 278.862 276.121 278.291C275.795 277.719 275.345 277.283 274.769 276.983C274.198 276.682 273.54 276.532 272.795 276.532C272.054 276.532 271.396 276.649 270.821 276.881C270.25 277.114 269.765 277.444 269.367 277.872C268.974 278.295 268.675 278.798 268.472 279.382C268.269 279.966 268.167 280.612 268.167 281.318C268.167 282.182 268.32 282.916 268.625 283.521C268.933 284.126 269.384 284.587 269.977 284.905C270.573 285.218 271.299 285.375 272.154 285.375C272.67 285.375 273.167 285.317 273.646 285.203C274.124 285.089 274.551 284.96 274.928 284.816V285.641C274.555 285.798 274.139 285.925 273.677 286.022C273.216 286.124 272.708 286.174 272.154 286.174C271.134 286.174 270.262 285.982 269.539 285.597C268.815 285.216 268.261 284.666 267.875 283.946C267.49 283.227 267.298 282.364 267.298 281.356C267.298 280.54 267.423 279.789 267.672 279.103C267.926 278.417 268.29 277.823 268.764 277.319C269.242 276.816 269.82 276.426 270.497 276.151C271.178 275.872 271.944 275.732 272.795 275.732C273.705 275.732 274.509 275.921 275.207 276.297C275.91 276.67 276.46 277.203 276.857 277.897C277.259 278.587 277.46 279.41 277.46 280.366ZM270.846 281.204C270.846 281.767 270.958 282.18 271.183 282.442C271.407 282.704 271.718 282.835 272.116 282.835C272.607 282.835 272.966 282.651 273.195 282.283C273.428 281.915 273.561 281.428 273.595 280.823L273.671 279.167C273.548 279.128 273.398 279.097 273.22 279.071C273.047 279.042 272.865 279.027 272.674 279.027C272.238 279.027 271.885 279.131 271.614 279.338C271.348 279.545 271.153 279.814 271.03 280.144C270.908 280.474 270.846 280.827 270.846 281.204ZM282.583 277.916C283.451 277.916 284.142 278.214 284.659 278.811C285.175 279.408 285.433 280.305 285.433 281.502C285.433 282.294 285.315 282.958 285.078 283.496C284.841 284.033 284.506 284.439 284.075 284.714C283.647 284.989 283.142 285.127 282.558 285.127C282.189 285.127 281.866 285.078 281.586 284.981C281.307 284.884 281.068 284.752 280.869 284.587C280.67 284.422 280.505 284.243 280.374 284.048H280.298C280.311 284.213 280.325 284.412 280.342 284.645C280.363 284.877 280.374 285.08 280.374 285.254V288.11H279.314V278.043H280.184L280.323 279.071H280.374C280.509 278.86 280.674 278.667 280.869 278.494C281.064 278.316 281.301 278.176 281.58 278.075C281.864 277.969 282.198 277.916 282.583 277.916ZM282.399 278.805C281.917 278.805 281.527 278.898 281.231 279.084C280.939 279.27 280.725 279.549 280.59 279.922C280.454 280.29 280.382 280.753 280.374 281.312V281.515C280.374 282.103 280.438 282.601 280.564 283.007C280.696 283.413 280.909 283.722 281.206 283.934C281.506 284.145 281.908 284.251 282.412 284.251C282.843 284.251 283.203 284.135 283.491 283.902C283.778 283.669 283.992 283.345 284.132 282.931C284.276 282.512 284.348 282.031 284.348 281.49C284.348 280.669 284.187 280.017 283.865 279.535C283.548 279.048 283.059 278.805 282.399 278.805ZM290.543 277.916C291.41 277.916 292.102 278.214 292.619 278.811C293.135 279.408 293.393 280.305 293.393 281.502C293.393 282.294 293.275 282.958 293.038 283.496C292.801 284.033 292.466 284.439 292.035 284.714C291.607 284.989 291.102 285.127 290.518 285.127C290.149 285.127 289.826 285.078 289.546 284.981C289.267 284.884 289.028 284.752 288.829 284.587C288.63 284.422 288.465 284.243 288.334 284.048H288.258C288.271 284.213 288.285 284.412 288.302 284.645C288.323 284.877 288.334 285.08 288.334 285.254V288.11H287.274V278.043H288.144L288.283 279.071H288.334C288.469 278.86 288.634 278.667 288.829 278.494C289.024 278.316 289.261 278.176 289.54 278.075C289.824 277.969 290.158 277.916 290.543 277.916ZM290.359 278.805C289.876 278.805 289.487 278.898 289.191 279.084C288.899 279.27 288.685 279.549 288.55 279.922C288.414 280.29 288.342 280.753 288.334 281.312V281.515C288.334 282.103 288.397 282.601 288.524 283.007C288.656 283.413 288.869 283.722 289.166 283.934C289.466 284.145 289.868 284.251 290.372 284.251C290.803 284.251 291.163 284.135 291.451 283.902C291.738 283.669 291.952 283.345 292.092 282.931C292.236 282.512 292.308 282.031 292.308 281.49C292.308 280.669 292.147 280.017 291.825 279.535C291.508 279.048 291.019 278.805 290.359 278.805ZM297.709 285.127C296.829 285.127 296.131 284.826 295.615 284.226C295.103 283.625 294.847 282.732 294.847 281.547C294.847 280.349 295.109 279.446 295.634 278.836C296.159 278.223 296.857 277.916 297.729 277.916C298.097 277.916 298.418 277.965 298.693 278.062C298.968 278.159 299.205 278.291 299.404 278.456C299.603 278.616 299.77 278.8 299.906 279.008H299.982C299.965 278.877 299.948 278.697 299.931 278.468C299.914 278.24 299.906 278.054 299.906 277.91V275.123H300.959V285H300.109L299.95 284.01H299.906C299.775 284.217 299.607 284.405 299.404 284.575C299.205 284.744 298.966 284.879 298.687 284.981C298.412 285.078 298.086 285.127 297.709 285.127ZM297.875 284.251C298.619 284.251 299.146 284.039 299.455 283.616C299.764 283.193 299.918 282.565 299.918 281.731V281.541C299.918 280.656 299.77 279.977 299.474 279.503C299.182 279.029 298.649 278.792 297.875 278.792C297.227 278.792 296.743 279.042 296.421 279.541C296.099 280.036 295.938 280.713 295.938 281.572C295.938 282.427 296.097 283.087 296.415 283.553C296.736 284.018 297.223 284.251 297.875 284.251ZM305.98 285.127C305.354 285.127 304.802 284.998 304.324 284.74C303.846 284.482 303.473 284.088 303.207 283.559C302.94 283.03 302.807 282.364 302.807 281.56C302.807 280.717 302.946 280.03 303.226 279.497C303.509 278.959 303.898 278.561 304.394 278.303C304.889 278.045 305.451 277.916 306.082 277.916C306.429 277.916 306.763 277.952 307.085 278.024C307.411 278.092 307.677 278.178 307.885 278.284L307.567 279.167C307.356 279.082 307.11 279.006 306.831 278.938C306.556 278.87 306.298 278.836 306.057 278.836C305.574 278.836 305.172 278.94 304.851 279.147C304.533 279.355 304.294 279.66 304.133 280.062C303.977 280.464 303.898 280.959 303.898 281.547C303.898 282.11 303.975 282.59 304.127 282.988C304.284 283.386 304.514 283.69 304.819 283.902C305.128 284.109 305.513 284.213 305.974 284.213C306.342 284.213 306.674 284.175 306.971 284.099C307.267 284.018 307.536 283.925 307.777 283.819V284.759C307.544 284.877 307.284 284.968 306.996 285.032C306.713 285.095 306.374 285.127 305.98 285.127ZM309.269 284.34C309.269 284.044 309.34 283.834 309.484 283.711C309.628 283.584 309.804 283.521 310.011 283.521C310.227 283.521 310.409 283.584 310.557 283.711C310.705 283.834 310.779 284.044 310.779 284.34C310.779 284.632 310.705 284.846 310.557 284.981C310.409 285.112 310.227 285.178 310.011 285.178C309.804 285.178 309.628 285.112 309.484 284.981C309.34 284.846 309.269 284.632 309.269 284.34ZM318.841 281.509C318.841 282.08 318.767 282.59 318.619 283.039C318.471 283.487 318.257 283.866 317.978 284.175C317.698 284.484 317.36 284.721 316.962 284.886C316.568 285.047 316.122 285.127 315.623 285.127C315.157 285.127 314.73 285.047 314.34 284.886C313.955 284.721 313.621 284.484 313.337 284.175C313.058 283.866 312.84 283.487 312.684 283.039C312.531 282.59 312.455 282.08 312.455 281.509C312.455 280.747 312.584 280.1 312.842 279.566C313.1 279.029 313.469 278.621 313.947 278.341C314.429 278.058 315.003 277.916 315.667 277.916C316.302 277.916 316.856 278.058 317.33 278.341C317.808 278.625 318.179 279.035 318.441 279.573C318.708 280.106 318.841 280.751 318.841 281.509ZM313.547 281.509C313.547 282.067 313.621 282.552 313.769 282.962C313.917 283.373 314.146 283.69 314.455 283.915C314.764 284.139 315.161 284.251 315.648 284.251C316.13 284.251 316.526 284.139 316.835 283.915C317.148 283.69 317.379 283.373 317.527 282.962C317.675 282.552 317.749 282.067 317.749 281.509C317.749 280.954 317.675 280.476 317.527 280.074C317.379 279.668 317.15 279.355 316.841 279.135C316.532 278.915 316.132 278.805 315.642 278.805C314.918 278.805 314.387 279.044 314.048 279.522C313.714 280 313.547 280.662 313.547 281.509ZM323.824 277.916C323.963 277.916 324.109 277.924 324.262 277.941C324.414 277.954 324.549 277.973 324.668 277.999L324.535 278.976C324.42 278.946 324.293 278.923 324.154 278.906C324.014 278.889 323.883 278.881 323.76 278.881C323.481 278.881 323.216 278.938 322.967 279.052C322.721 279.162 322.506 279.323 322.319 279.535C322.133 279.742 321.987 279.994 321.881 280.29C321.776 280.582 321.723 280.908 321.723 281.268V285H320.663V278.043H321.539L321.653 279.325H321.697C321.841 279.067 322.015 278.832 322.218 278.621C322.421 278.405 322.656 278.233 322.922 278.106C323.193 277.979 323.494 277.916 323.824 277.916ZM327.924 288.123C327.01 288.123 326.306 287.952 325.811 287.609C325.315 287.27 325.068 286.794 325.068 286.181C325.068 285.745 325.205 285.372 325.48 285.063C325.76 284.755 326.145 284.549 326.636 284.448C326.454 284.363 326.297 284.236 326.166 284.067C326.039 283.898 325.976 283.703 325.976 283.483C325.976 283.229 326.045 283.007 326.185 282.816C326.329 282.622 326.547 282.436 326.839 282.258C326.475 282.11 326.179 281.86 325.95 281.509C325.726 281.153 325.614 280.741 325.614 280.271C325.614 279.772 325.717 279.346 325.925 278.995C326.132 278.64 326.433 278.369 326.826 278.183C327.22 277.996 327.696 277.903 328.254 277.903C328.377 277.903 328.5 277.91 328.623 277.922C328.75 277.931 328.87 277.946 328.984 277.967C329.099 277.984 329.198 278.005 329.283 278.03H331.669V278.709L330.387 278.868C330.514 279.033 330.62 279.232 330.705 279.465C330.789 279.698 330.832 279.956 330.832 280.239C330.832 280.933 330.597 281.486 330.127 281.896C329.657 282.302 329.012 282.505 328.191 282.505C327.996 282.505 327.797 282.488 327.594 282.455C327.387 282.569 327.228 282.696 327.118 282.835C327.012 282.975 326.959 283.136 326.959 283.318C326.959 283.453 327 283.561 327.08 283.642C327.165 283.722 327.285 283.781 327.442 283.819C327.598 283.853 327.787 283.87 328.007 283.87H329.232C329.989 283.87 330.569 284.029 330.971 284.346C331.377 284.664 331.581 285.127 331.581 285.736C331.581 286.507 331.267 287.097 330.641 287.507C330.015 287.918 329.109 288.123 327.924 288.123ZM327.956 287.298C328.532 287.298 329.008 287.239 329.384 287.12C329.765 287.006 330.049 286.839 330.235 286.619C330.425 286.403 330.521 286.145 330.521 285.844C330.521 285.565 330.457 285.353 330.33 285.209C330.203 285.07 330.017 284.977 329.771 284.93C329.526 284.879 329.226 284.854 328.87 284.854H327.664C327.351 284.854 327.078 284.903 326.845 285C326.612 285.097 326.433 285.241 326.306 285.432C326.183 285.622 326.122 285.859 326.122 286.143C326.122 286.519 326.28 286.805 326.598 287C326.915 287.198 327.368 287.298 327.956 287.298ZM328.229 281.737C328.733 281.737 329.111 281.61 329.365 281.356C329.619 281.103 329.746 280.732 329.746 280.246C329.746 279.725 329.617 279.336 329.359 279.078C329.101 278.815 328.72 278.684 328.216 278.684C327.734 278.684 327.361 278.819 327.099 279.09C326.841 279.357 326.712 279.748 326.712 280.265C326.712 280.739 326.843 281.103 327.105 281.356C327.368 281.61 327.742 281.737 328.229 281.737Z" fill="#1A1A1A"/>
<path d="M113.624 158.616L110.348 153.672H111.656L114.296 157.716H113.708L116.36 153.672H117.644L114.344 158.616H113.624ZM113.432 162V157.872H114.56V162H113.432ZM119.607 162.12C119.047 162.12 118.543 161.988 118.095 161.724C117.647 161.46 117.291 161.104 117.027 160.656C116.763 160.2 116.631 159.692 116.631 159.132C116.631 158.58 116.763 158.084 117.027 157.644C117.291 157.196 117.647 156.84 118.095 156.576C118.543 156.312 119.047 156.18 119.607 156.18C120.159 156.18 120.659 156.312 121.107 156.576C121.563 156.832 121.923 157.184 122.187 157.632C122.451 158.08 122.583 158.58 122.583 159.132C122.583 159.692 122.451 160.2 122.187 160.656C121.923 161.104 121.563 161.46 121.107 161.724C120.659 161.988 120.159 162.12 119.607 162.12ZM119.607 161.076C119.967 161.076 120.287 160.992 120.567 160.824C120.847 160.656 121.067 160.428 121.227 160.14C121.387 159.844 121.467 159.508 121.467 159.132C121.467 158.764 121.383 158.436 121.215 158.148C121.055 157.86 120.835 157.636 120.555 157.476C120.283 157.308 119.967 157.224 119.607 157.224C119.247 157.224 118.927 157.308 118.647 157.476C118.367 157.636 118.147 157.86 117.987 158.148C117.827 158.436 117.747 158.764 117.747 159.132C117.747 159.508 117.827 159.844 117.987 160.14C118.147 160.428 118.367 160.656 118.647 160.824C118.927 160.992 119.247 161.076 119.607 161.076ZM126.092 162.12C125.628 162.12 125.208 162.016 124.832 161.808C124.464 161.592 124.176 161.296 123.968 160.92C123.76 160.544 123.656 160.108 123.656 159.612V156.3H124.736V159.564C124.736 159.876 124.788 160.148 124.892 160.38C125.004 160.604 125.164 160.776 125.372 160.896C125.58 161.016 125.824 161.076 126.104 161.076C126.528 161.076 126.86 160.944 127.1 160.68C127.34 160.408 127.46 160.036 127.46 159.564V156.3H128.54V159.612C128.54 160.108 128.436 160.544 128.228 160.92C128.02 161.296 127.732 161.592 127.364 161.808C127.004 162.016 126.58 162.12 126.092 162.12ZM129.987 162V156.3H131.067V162H129.987ZM131.067 158.748L130.659 158.568C130.659 157.84 130.827 157.26 131.163 156.828C131.499 156.396 131.983 156.18 132.615 156.18C132.903 156.18 133.163 156.232 133.395 156.336C133.627 156.432 133.843 156.596 134.043 156.828L133.335 157.56C133.215 157.432 133.083 157.34 132.939 157.284C132.795 157.228 132.627 157.2 132.435 157.2C132.035 157.2 131.707 157.328 131.451 157.584C131.195 157.84 131.067 158.228 131.067 158.748ZM137.511 162V156.3H138.591V162H137.511ZM138.591 158.748L138.183 158.568C138.183 157.84 138.351 157.26 138.687 156.828C139.023 156.396 139.507 156.18 140.139 156.18C140.427 156.18 140.687 156.232 140.919 156.336C141.151 156.432 141.367 156.596 141.567 156.828L140.859 157.56C140.739 157.432 140.607 157.34 140.463 157.284C140.319 157.228 140.151 157.2 139.959 157.2C139.559 157.2 139.231 157.328 138.975 157.584C138.719 157.84 138.591 158.228 138.591 158.748ZM144.78 162.12C144.212 162.12 143.7 161.992 143.244 161.736C142.788 161.472 142.428 161.116 142.164 160.668C141.9 160.22 141.768 159.712 141.768 159.144C141.768 158.584 141.896 158.08 142.152 157.632C142.416 157.184 142.768 156.832 143.208 156.576C143.656 156.312 144.156 156.18 144.708 156.18C145.236 156.18 145.7 156.3 146.1 156.54C146.508 156.78 146.824 157.112 147.048 157.536C147.28 157.96 147.396 158.44 147.396 158.976C147.396 159.056 147.392 159.144 147.384 159.24C147.376 159.328 147.36 159.432 147.336 159.552H142.524V158.652H146.76L146.364 159C146.364 158.616 146.296 158.292 146.16 158.028C146.024 157.756 145.832 157.548 145.584 157.404C145.336 157.252 145.036 157.176 144.684 157.176C144.316 157.176 143.992 157.256 143.712 157.416C143.432 157.576 143.216 157.8 143.064 158.088C142.912 158.376 142.836 158.716 142.836 159.108C142.836 159.508 142.916 159.86 143.076 160.164C143.236 160.46 143.464 160.692 143.76 160.86C144.056 161.02 144.396 161.1 144.78 161.1C145.1 161.1 145.392 161.044 145.656 160.932C145.928 160.82 146.16 160.652 146.352 160.428L147.048 161.136C146.776 161.456 146.44 161.7 146.04 161.868C145.648 162.036 145.228 162.12 144.78 162.12ZM151.009 162.12C150.481 162.12 150.005 161.992 149.581 161.736C149.157 161.472 148.821 161.116 148.573 160.668C148.333 160.22 148.213 159.716 148.213 159.156C148.213 158.596 148.333 158.092 148.573 157.644C148.821 157.196 149.157 156.84 149.581 156.576C150.005 156.312 150.477 156.18 150.997 156.18C151.437 156.18 151.825 156.272 152.161 156.456C152.505 156.632 152.777 156.88 152.977 157.2C153.185 157.512 153.301 157.876 153.325 158.292V160.008C153.301 160.416 153.185 160.78 152.977 161.1C152.777 161.42 152.505 161.672 152.161 161.856C151.825 162.032 151.441 162.12 151.009 162.12ZM151.177 161.1C151.713 161.1 152.145 160.92 152.473 160.56C152.801 160.192 152.965 159.724 152.965 159.156C152.965 158.764 152.889 158.424 152.737 158.136C152.593 157.84 152.385 157.612 152.113 157.452C151.849 157.284 151.537 157.2 151.177 157.2C150.817 157.2 150.497 157.284 150.217 157.452C149.945 157.62 149.729 157.852 149.569 158.148C149.409 158.436 149.329 158.768 149.329 159.144C149.329 159.528 149.409 159.868 149.569 160.164C149.729 160.452 149.945 160.68 150.217 160.848C150.497 161.016 150.817 161.1 151.177 161.1ZM152.905 164.388V160.572L153.097 159.18L152.905 157.8V156.3H153.985V164.388H152.905ZM157.861 162.12C157.397 162.12 156.977 162.016 156.601 161.808C156.233 161.592 155.945 161.296 155.737 160.92C155.529 160.544 155.425 160.108 155.425 159.612V156.3H156.505V159.564C156.505 159.876 156.557 160.148 156.661 160.38C156.773 160.604 156.933 160.776 157.141 160.896C157.349 161.016 157.593 161.076 157.873 161.076C158.297 161.076 158.629 160.944 158.869 160.68C159.109 160.408 159.229 160.036 159.229 159.564V156.3H160.309V159.612C160.309 160.108 160.205 160.544 159.997 160.92C159.789 161.296 159.501 161.592 159.133 161.808C158.773 162.016 158.349 162.12 157.861 162.12ZM161.769 162V156.3H162.849V162H161.769ZM162.309 155.16C162.109 155.16 161.945 155.096 161.817 154.968C161.689 154.832 161.625 154.664 161.625 154.464C161.625 154.272 161.689 154.112 161.817 153.984C161.945 153.848 162.109 153.78 162.309 153.78C162.509 153.78 162.673 153.848 162.801 153.984C162.929 154.112 162.993 154.272 162.993 154.464C162.993 154.664 162.929 154.832 162.801 154.968C162.673 155.096 162.509 155.16 162.309 155.16ZM166.252 162.12C165.932 162.12 165.628 162.08 165.34 162C165.06 161.912 164.8 161.792 164.56 161.64C164.32 161.48 164.112 161.292 163.936 161.076L164.632 160.38C164.84 160.636 165.08 160.828 165.352 160.956C165.624 161.076 165.928 161.136 166.264 161.136C166.6 161.136 166.86 161.08 167.044 160.968C167.228 160.848 167.32 160.684 167.32 160.476C167.32 160.268 167.244 160.108 167.092 159.996C166.948 159.876 166.76 159.78 166.528 159.708C166.296 159.628 166.048 159.552 165.784 159.48C165.528 159.4 165.284 159.3 165.052 159.18C164.82 159.06 164.628 158.896 164.476 158.688C164.332 158.48 164.26 158.204 164.26 157.86C164.26 157.516 164.344 157.22 164.512 156.972C164.68 156.716 164.912 156.52 165.208 156.384C165.512 156.248 165.876 156.18 166.3 156.18C166.748 156.18 167.144 156.26 167.488 156.42C167.84 156.572 168.128 156.804 168.352 157.116L167.656 157.812C167.496 157.604 167.296 157.444 167.056 157.332C166.824 157.22 166.56 157.164 166.264 157.164C165.952 157.164 165.712 157.22 165.544 157.332C165.384 157.436 165.304 157.584 165.304 157.776C165.304 157.968 165.376 158.116 165.52 158.22C165.664 158.324 165.852 158.412 166.084 158.484C166.324 158.556 166.572 158.632 166.828 158.712C167.084 158.784 167.328 158.884 167.56 159.012C167.792 159.14 167.98 159.312 168.124 159.528C168.276 159.744 168.352 160.028 168.352 160.38C168.352 160.916 168.16 161.34 167.776 161.652C167.4 161.964 166.892 162.12 166.252 162.12ZM169.574 162V156.3H170.654V162H169.574ZM170.114 155.16C169.914 155.16 169.75 155.096 169.622 154.968C169.494 154.832 169.43 154.664 169.43 154.464C169.43 154.272 169.494 154.112 169.622 153.984C169.75 153.848 169.914 153.78 170.114 153.78C170.314 153.78 170.478 153.848 170.606 153.984C170.734 154.112 170.798 154.272 170.798 154.464C170.798 154.664 170.734 154.832 170.606 154.968C170.478 155.096 170.314 155.16 170.114 155.16ZM173.121 162V153.912H174.201V162H173.121ZM171.717 157.284V156.3H175.605V157.284H171.717ZM176.675 162V156.3H177.755V162H176.675ZM177.215 155.16C177.015 155.16 176.851 155.096 176.723 154.968C176.595 154.832 176.531 154.664 176.531 154.464C176.531 154.272 176.595 154.112 176.723 153.984C176.851 153.848 177.015 153.78 177.215 153.78C177.415 153.78 177.579 153.848 177.707 153.984C177.835 154.112 177.899 154.272 177.899 154.464C177.899 154.664 177.835 154.832 177.707 154.968C177.579 155.096 177.415 155.16 177.215 155.16ZM181.951 162.12C181.391 162.12 180.887 161.988 180.439 161.724C179.991 161.46 179.635 161.104 179.371 160.656C179.107 160.2 178.975 159.692 178.975 159.132C178.975 158.58 179.107 158.084 179.371 157.644C179.635 157.196 179.991 156.84 180.439 156.576C180.887 156.312 181.391 156.18 181.951 156.18C182.503 156.18 183.003 156.312 183.451 156.576C183.907 156.832 184.267 157.184 184.531 157.632C184.795 158.08 184.927 158.58 184.927 159.132C184.927 159.692 184.795 160.2 184.531 160.656C184.267 161.104 183.907 161.46 183.451 161.724C183.003 161.988 182.503 162.12 181.951 162.12ZM181.951 161.076C182.311 161.076 182.631 160.992 182.911 160.824C183.191 160.656 183.411 160.428 183.571 160.14C183.731 159.844 183.811 159.508 183.811 159.132C183.811 158.764 183.727 158.436 183.559 158.148C183.399 157.86 183.179 157.636 182.899 157.476C182.627 157.308 182.311 157.224 181.951 157.224C181.591 157.224 181.271 157.308 180.991 157.476C180.711 157.636 180.491 157.86 180.331 158.148C180.171 158.436 180.091 158.764 180.091 159.132C180.091 159.508 180.171 159.844 180.331 160.14C180.491 160.428 180.711 160.656 180.991 160.824C181.271 160.992 181.591 161.076 181.951 161.076ZM190.176 162V158.676C190.176 158.244 190.04 157.888 189.768 157.608C189.496 157.328 189.144 157.188 188.712 157.188C188.424 157.188 188.168 157.252 187.944 157.38C187.72 157.508 187.544 157.684 187.416 157.908C187.288 158.132 187.224 158.388 187.224 158.676L186.78 158.424C186.78 157.992 186.876 157.608 187.068 157.272C187.26 156.936 187.528 156.672 187.872 156.48C188.216 156.28 188.604 156.18 189.036 156.18C189.468 156.18 189.848 156.288 190.176 156.504C190.512 156.72 190.776 157.004 190.968 157.356C191.16 157.7 191.256 158.068 191.256 158.46V162H190.176ZM186.144 162V156.3H187.224V162H186.144ZM199.246 162V158.676C199.246 158.244 199.11 157.888 198.838 157.608C198.566 157.328 198.214 157.188 197.782 157.188C197.494 157.188 197.238 157.252 197.014 157.38C196.79 157.508 196.614 157.684 196.486 157.908C196.358 158.132 196.294 158.388 196.294 158.676L195.85 158.424C195.85 157.992 195.946 157.608 196.138 157.272C196.33 156.936 196.598 156.672 196.942 156.48C197.286 156.28 197.674 156.18 198.106 156.18C198.538 156.18 198.918 156.276 199.246 156.468C199.582 156.66 199.846 156.928 200.038 157.272C200.23 157.616 200.326 158.012 200.326 158.46V162H199.246ZM195.214 162V153.432H196.294V162H195.214ZM204.212 162.12C203.692 162.12 203.22 161.992 202.796 161.736C202.372 161.472 202.036 161.116 201.788 160.668C201.548 160.22 201.428 159.716 201.428 159.156C201.428 158.596 201.548 158.092 201.788 157.644C202.036 157.196 202.368 156.84 202.784 156.576C203.208 156.312 203.684 156.18 204.212 156.18C204.644 156.18 205.028 156.272 205.364 156.456C205.708 156.632 205.984 156.88 206.192 157.2C206.4 157.512 206.516 157.876 206.54 158.292V160.008C206.516 160.416 206.4 160.78 206.192 161.1C205.992 161.42 205.72 161.672 205.376 161.856C205.04 162.032 204.652 162.12 204.212 162.12ZM204.392 161.1C204.928 161.1 205.36 160.92 205.688 160.56C206.016 160.192 206.18 159.724 206.18 159.156C206.18 158.764 206.104 158.424 205.952 158.136C205.808 157.84 205.6 157.612 205.328 157.452C205.056 157.284 204.74 157.2 204.38 157.2C204.02 157.2 203.7 157.284 203.42 157.452C203.148 157.62 202.932 157.852 202.772 158.148C202.62 158.436 202.544 158.768 202.544 159.144C202.544 159.528 202.62 159.868 202.772 160.164C202.932 160.452 203.152 160.68 203.432 160.848C203.712 161.016 204.032 161.1 204.392 161.1ZM206.108 162V160.464L206.312 159.072L206.108 157.692V156.3H207.2V162H206.108ZM210.584 162.12C210.264 162.12 209.96 162.08 209.672 162C209.392 161.912 209.132 161.792 208.892 161.64C208.652 161.48 208.444 161.292 208.268 161.076L208.964 160.38C209.172 160.636 209.412 160.828 209.684 160.956C209.956 161.076 210.26 161.136 210.596 161.136C210.932 161.136 211.192 161.08 211.376 160.968C211.56 160.848 211.652 160.684 211.652 160.476C211.652 160.268 211.576 160.108 211.424 159.996C211.28 159.876 211.092 159.78 210.86 159.708C210.628 159.628 210.38 159.552 210.116 159.48C209.86 159.4 209.616 159.3 209.384 159.18C209.152 159.06 208.96 158.896 208.808 158.688C208.664 158.48 208.592 158.204 208.592 157.86C208.592 157.516 208.676 157.22 208.844 156.972C209.012 156.716 209.244 156.52 209.54 156.384C209.844 156.248 210.208 156.18 210.632 156.18C211.08 156.18 211.476 156.26 211.82 156.42C212.172 156.572 212.46 156.804 212.684 157.116L211.988 157.812C211.828 157.604 211.628 157.444 211.388 157.332C211.156 157.22 210.892 157.164 210.596 157.164C210.284 157.164 210.044 157.22 209.876 157.332C209.716 157.436 209.636 157.584 209.636 157.776C209.636 157.968 209.708 158.116 209.852 158.22C209.996 158.324 210.184 158.412 210.416 158.484C210.656 158.556 210.904 158.632 211.16 158.712C211.416 158.784 211.66 158.884 211.892 159.012C212.124 159.14 212.312 159.312 212.456 159.528C212.608 159.744 212.684 160.028 212.684 160.38C212.684 160.916 212.492 161.34 212.108 161.652C211.732 161.964 211.224 162.12 210.584 162.12ZM219.39 162.12C218.958 162.12 218.566 162.032 218.214 161.856C217.87 161.672 217.594 161.42 217.386 161.1C217.178 160.78 217.062 160.416 217.038 160.008V158.292C217.062 157.876 217.178 157.512 217.386 157.2C217.602 156.88 217.882 156.632 218.226 156.456C218.578 156.272 218.966 156.18 219.39 156.18C219.91 156.18 220.378 156.312 220.794 156.576C221.218 156.84 221.55 157.196 221.79 157.644C222.03 158.092 222.15 158.596 222.15 159.156C222.15 159.716 222.03 160.22 221.79 160.668C221.55 161.116 221.218 161.472 220.794 161.736C220.378 161.992 219.91 162.12 219.39 162.12ZM219.21 161.1C219.57 161.1 219.886 161.016 220.158 160.848C220.43 160.68 220.646 160.452 220.806 160.164C220.966 159.868 221.046 159.528 221.046 159.144C221.046 158.768 220.966 158.432 220.806 158.136C220.646 157.84 220.43 157.612 220.158 157.452C219.886 157.284 219.574 157.2 219.222 157.2C218.862 157.2 218.546 157.284 218.274 157.452C218.002 157.612 217.79 157.84 217.638 158.136C217.486 158.432 217.41 158.772 217.41 159.156C217.41 159.532 217.482 159.868 217.626 160.164C217.778 160.452 217.99 160.68 218.262 160.848C218.542 161.016 218.858 161.1 219.21 161.1ZM216.39 162V153.432H217.47V157.692L217.266 159.072L217.47 160.464V162H216.39ZM226.014 162.12C225.446 162.12 224.934 161.992 224.478 161.736C224.022 161.472 223.662 161.116 223.398 160.668C223.134 160.22 223.002 159.712 223.002 159.144C223.002 158.584 223.13 158.08 223.386 157.632C223.65 157.184 224.002 156.832 224.442 156.576C224.89 156.312 225.39 156.18 225.942 156.18C226.47 156.18 226.934 156.3 227.334 156.54C227.742 156.78 228.058 157.112 228.282 157.536C228.514 157.96 228.63 158.44 228.63 158.976C228.63 159.056 228.626 159.144 228.618 159.24C228.61 159.328 228.594 159.432 228.57 159.552H223.758V158.652H227.994L227.598 159C227.598 158.616 227.53 158.292 227.394 158.028C227.258 157.756 227.066 157.548 226.818 157.404C226.57 157.252 226.27 157.176 225.918 157.176C225.55 157.176 225.226 157.256 224.946 157.416C224.666 157.576 224.45 157.8 224.298 158.088C224.146 158.376 224.07 158.716 224.07 159.108C224.07 159.508 224.15 159.86 224.31 160.164C224.47 160.46 224.698 160.692 224.994 160.86C225.29 161.02 225.63 161.1 226.014 161.1C226.334 161.1 226.626 161.044 226.89 160.932C227.162 160.82 227.394 160.652 227.586 160.428L228.282 161.136C228.01 161.456 227.674 161.7 227.274 161.868C226.882 162.036 226.462 162.12 226.014 162.12ZM232.448 162.12C231.88 162.12 231.368 161.992 230.912 161.736C230.456 161.472 230.096 161.116 229.832 160.668C229.568 160.22 229.436 159.712 229.436 159.144C229.436 158.584 229.564 158.08 229.82 157.632C230.084 157.184 230.436 156.832 230.876 156.576C231.324 156.312 231.824 156.18 232.376 156.18C232.904 156.18 233.368 156.3 233.768 156.54C234.176 156.78 234.492 157.112 234.716 157.536C234.948 157.96 235.064 158.44 235.064 158.976C235.064 159.056 235.06 159.144 235.052 159.24C235.044 159.328 235.028 159.432 235.004 159.552H230.192V158.652H234.428L234.032 159C234.032 158.616 233.964 158.292 233.828 158.028C233.692 157.756 233.5 157.548 233.252 157.404C233.004 157.252 232.704 157.176 232.352 157.176C231.984 157.176 231.66 157.256 231.38 157.416C231.1 157.576 230.884 157.8 230.732 158.088C230.58 158.376 230.504 158.716 230.504 159.108C230.504 159.508 230.584 159.86 230.744 160.164C230.904 160.46 231.132 160.692 231.428 160.86C231.724 161.02 232.064 161.1 232.448 161.1C232.768 161.1 233.06 161.044 233.324 160.932C233.596 160.82 233.828 160.652 234.02 160.428L234.716 161.136C234.444 161.456 234.108 161.7 233.708 161.868C233.316 162.036 232.896 162.12 232.448 162.12ZM240.273 162V158.676C240.273 158.244 240.137 157.888 239.865 157.608C239.593 157.328 239.241 157.188 238.809 157.188C238.521 157.188 238.265 157.252 238.041 157.38C237.817 157.508 237.641 157.684 237.513 157.908C237.385 158.132 237.321 158.388 237.321 158.676L236.877 158.424C236.877 157.992 236.973 157.608 237.165 157.272C237.357 156.936 237.625 156.672 237.969 156.48C238.313 156.28 238.701 156.18 239.133 156.18C239.565 156.18 239.945 156.288 240.273 156.504C240.609 156.72 240.873 157.004 241.065 157.356C241.257 157.7 241.353 158.068 241.353 158.46V162H240.273ZM236.241 162V156.3H237.321V162H236.241ZM247.736 162.12C247.216 162.12 246.744 161.992 246.32 161.736C245.896 161.472 245.56 161.116 245.312 160.668C245.072 160.22 244.952 159.716 244.952 159.156C244.952 158.596 245.072 158.092 245.312 157.644C245.56 157.196 245.892 156.84 246.308 156.576C246.732 156.312 247.208 156.18 247.736 156.18C248.168 156.18 248.552 156.272 248.888 156.456C249.232 156.632 249.508 156.88 249.716 157.2C249.924 157.512 250.04 157.876 250.064 158.292V160.008C250.04 160.416 249.924 160.78 249.716 161.1C249.516 161.42 249.244 161.672 248.9 161.856C248.564 162.032 248.176 162.12 247.736 162.12ZM247.916 161.1C248.452 161.1 248.884 160.92 249.212 160.56C249.54 160.192 249.704 159.724 249.704 159.156C249.704 158.764 249.628 158.424 249.476 158.136C249.332 157.84 249.124 157.612 248.852 157.452C248.58 157.284 248.264 157.2 247.904 157.2C247.544 157.2 247.224 157.284 246.944 157.452C246.672 157.62 246.456 157.852 246.296 158.148C246.144 158.436 246.068 158.768 246.068 159.144C246.068 159.528 246.144 159.868 246.296 160.164C246.456 160.452 246.676 160.68 246.956 160.848C247.236 161.016 247.556 161.1 247.916 161.1ZM249.632 162V160.464L249.836 159.072L249.632 157.692V156.3H250.724V162H249.632ZM255.296 162.12C254.864 162.12 254.472 162.032 254.12 161.856C253.776 161.672 253.5 161.42 253.292 161.1C253.084 160.78 252.968 160.416 252.944 160.008V158.292C252.968 157.876 253.084 157.512 253.292 157.2C253.508 156.88 253.788 156.632 254.132 156.456C254.484 156.272 254.872 156.18 255.296 156.18C255.816 156.18 256.284 156.312 256.7 156.576C257.124 156.84 257.456 157.196 257.696 157.644C257.936 158.092 258.056 158.596 258.056 159.156C258.056 159.716 257.936 160.22 257.696 160.668C257.456 161.116 257.124 161.472 256.7 161.736C256.284 161.992 255.816 162.12 255.296 162.12ZM255.116 161.1C255.476 161.1 255.792 161.016 256.064 160.848C256.336 160.68 256.552 160.452 256.712 160.164C256.872 159.868 256.952 159.528 256.952 159.144C256.952 158.768 256.872 158.432 256.712 158.136C256.552 157.84 256.336 157.612 256.064 157.452C255.792 157.284 255.48 157.2 255.128 157.2C254.768 157.2 254.452 157.284 254.18 157.452C253.908 157.612 253.696 157.84 253.544 158.136C253.392 158.432 253.316 158.772 253.316 159.156C253.316 159.532 253.388 159.868 253.532 160.164C253.684 160.452 253.896 160.68 254.168 160.848C254.448 161.016 254.764 161.1 255.116 161.1ZM252.296 164.388V156.3H253.376V157.8L253.172 159.18L253.376 160.572V164.388H252.296ZM262.28 162.12C261.848 162.12 261.456 162.032 261.104 161.856C260.76 161.672 260.484 161.42 260.276 161.1C260.068 160.78 259.952 160.416 259.928 160.008V158.292C259.952 157.876 260.068 157.512 260.276 157.2C260.492 156.88 260.772 156.632 261.116 156.456C261.468 156.272 261.856 156.18 262.28 156.18C262.8 156.18 263.268 156.312 263.684 156.576C264.108 156.84 264.44 157.196 264.68 157.644C264.92 158.092 265.04 158.596 265.04 159.156C265.04 159.716 264.92 160.22 264.68 160.668C264.44 161.116 264.108 161.472 263.684 161.736C263.268 161.992 262.8 162.12 262.28 162.12ZM262.1 161.1C262.46 161.1 262.776 161.016 263.048 160.848C263.32 160.68 263.536 160.452 263.696 160.164C263.856 159.868 263.936 159.528 263.936 159.144C263.936 158.768 263.856 158.432 263.696 158.136C263.536 157.84 263.32 157.612 263.048 157.452C262.776 157.284 262.464 157.2 262.112 157.2C261.752 157.2 261.436 157.284 261.164 157.452C260.892 157.612 260.68 157.84 260.528 158.136C260.376 158.432 260.3 158.772 260.3 159.156C260.3 159.532 260.372 159.868 260.516 160.164C260.668 160.452 260.88 160.68 261.152 160.848C261.432 161.016 261.748 161.1 262.1 161.1ZM259.28 164.388V156.3H260.36V157.8L260.156 159.18L260.36 160.572V164.388H259.28ZM266.265 162V156.3H267.345V162H266.265ZM267.345 158.748L266.937 158.568C266.937 157.84 267.105 157.26 267.441 156.828C267.777 156.396 268.261 156.18 268.893 156.18C269.181 156.18 269.441 156.232 269.673 156.336C269.905 156.432 270.121 156.596 270.321 156.828L269.613 157.56C269.493 157.432 269.361 157.34 269.217 157.284C269.073 157.228 268.905 157.2 268.713 157.2C268.313 157.2 267.985 157.328 267.729 157.584C267.473 157.84 267.345 158.228 267.345 158.748ZM273.498 162.12C272.938 162.12 272.434 161.988 271.986 161.724C271.538 161.46 271.182 161.104 270.918 160.656C270.654 160.2 270.522 159.692 270.522 159.132C270.522 158.58 270.654 158.084 270.918 157.644C271.182 157.196 271.538 156.84 271.986 156.576C272.434 156.312 272.938 156.18 273.498 156.18C274.05 156.18 274.55 156.312 274.998 156.576C275.454 156.832 275.814 157.184 276.078 157.632C276.342 158.08 276.474 158.58 276.474 159.132C276.474 159.692 276.342 160.2 276.078 160.656C275.814 161.104 275.454 161.46 274.998 161.724C274.55 161.988 274.05 162.12 273.498 162.12ZM273.498 161.076C273.858 161.076 274.178 160.992 274.458 160.824C274.738 160.656 274.958 160.428 275.118 160.14C275.278 159.844 275.358 159.508 275.358 159.132C275.358 158.764 275.274 158.436 275.106 158.148C274.946 157.86 274.726 157.636 274.446 157.476C274.174 157.308 273.858 157.224 273.498 157.224C273.138 157.224 272.818 157.308 272.538 157.476C272.258 157.636 272.038 157.86 271.878 158.148C271.718 158.436 271.638 158.764 271.638 159.132C271.638 159.508 271.718 159.844 271.878 160.14C272.038 160.428 272.258 160.656 272.538 160.824C272.818 160.992 273.138 161.076 273.498 161.076ZM279.424 162L276.808 156.3H278.008L280.108 161.112H279.412L281.524 156.3H282.676L280.06 162H279.424ZM286.014 162.12C285.446 162.12 284.934 161.992 284.478 161.736C284.022 161.472 283.662 161.116 283.398 160.668C283.134 160.22 283.002 159.712 283.002 159.144C283.002 158.584 283.13 158.08 283.386 157.632C283.65 157.184 284.002 156.832 284.442 156.576C284.89 156.312 285.39 156.18 285.942 156.18C286.47 156.18 286.934 156.3 287.334 156.54C287.742 156.78 288.058 157.112 288.282 157.536C288.514 157.96 288.63 158.44 288.63 158.976C288.63 159.056 288.626 159.144 288.618 159.24C288.61 159.328 288.594 159.432 288.57 159.552H283.758V158.652H287.994L287.598 159C287.598 158.616 287.53 158.292 287.394 158.028C287.258 157.756 287.066 157.548 286.818 157.404C286.57 157.252 286.27 157.176 285.918 157.176C285.55 157.176 285.226 157.256 284.946 157.416C284.666 157.576 284.45 157.8 284.298 158.088C284.146 158.376 284.07 158.716 284.07 159.108C284.07 159.508 284.15 159.86 284.31 160.164C284.47 160.46 284.698 160.692 284.994 160.86C285.29 161.02 285.63 161.1 286.014 161.1C286.334 161.1 286.626 161.044 286.89 160.932C287.162 160.82 287.394 160.652 287.586 160.428L288.282 161.136C288.01 161.456 287.674 161.7 287.274 161.868C286.882 162.036 286.462 162.12 286.014 162.12ZM292.22 162.12C291.692 162.12 291.22 161.992 290.804 161.736C290.388 161.472 290.056 161.116 289.808 160.668C289.568 160.22 289.448 159.716 289.448 159.156C289.448 158.596 289.568 158.092 289.808 157.644C290.056 157.196 290.388 156.84 290.804 156.576C291.22 156.312 291.692 156.18 292.22 156.18C292.644 156.18 293.028 156.272 293.372 156.456C293.716 156.632 293.992 156.88 294.2 157.2C294.416 157.512 294.536 157.876 294.56 158.292V160.008C294.536 160.416 294.42 160.78 294.212 161.1C294.004 161.42 293.728 161.672 293.384 161.856C293.04 162.032 292.652 162.12 292.22 162.12ZM292.4 161.1C292.76 161.1 293.072 161.016 293.336 160.848C293.608 160.68 293.82 160.452 293.972 160.164C294.124 159.868 294.2 159.532 294.2 159.156C294.2 158.764 294.12 158.424 293.96 158.136C293.808 157.848 293.596 157.62 293.324 157.452C293.06 157.284 292.748 157.2 292.388 157.2C292.028 157.2 291.712 157.284 291.44 157.452C291.168 157.62 290.952 157.852 290.792 158.148C290.64 158.436 290.564 158.768 290.564 159.144C290.564 159.528 290.64 159.868 290.792 160.164C290.952 160.452 291.168 160.68 291.44 160.848C291.72 161.016 292.04 161.1 292.4 161.1ZM295.22 162H294.128V160.464L294.332 159.072L294.128 157.692V153.432H295.22V162ZM297.116 159.36L296.96 153.432H298.112L297.956 159.36H297.116ZM297.524 162.12C297.3 162.12 297.116 162.044 296.972 161.892C296.828 161.74 296.756 161.552 296.756 161.328C296.756 161.104 296.828 160.92 296.972 160.776C297.116 160.624 297.3 160.548 297.524 160.548C297.756 160.548 297.944 160.624 298.088 160.776C298.232 160.92 298.304 161.104 298.304 161.328C298.304 161.552 298.232 161.74 298.088 161.892C297.944 162.044 297.756 162.12 297.524 162.12Z" fill="#1A1A1A"/>
<path d="M462.384 216.762V214.674H465.066C465.63 214.674 466.062 214.53 466.362 214.242C466.674 213.954 466.83 213.564 466.83 213.072C466.83 212.616 466.68 212.238 466.38 211.938C466.08 211.638 465.648 211.488 465.084 211.488H462.384V209.292H465.408C466.248 209.292 466.986 209.454 467.622 209.778C468.258 210.09 468.756 210.528 469.116 211.092C469.476 211.656 469.656 212.304 469.656 213.036C469.656 213.78 469.476 214.434 469.116 214.998C468.756 215.55 468.252 215.982 467.604 216.294C466.956 216.606 466.194 216.762 465.318 216.762H462.384ZM460.224 222V209.292H463.05V222H460.224ZM467.136 222L463.176 216.528L465.768 215.826L470.484 222H467.136ZM474.894 222.18C474.09 222.18 473.37 221.982 472.734 221.586C472.11 221.19 471.612 220.65 471.24 219.966C470.88 219.282 470.7 218.502 470.7 217.626C470.7 216.75 470.88 215.97 471.24 215.286C471.612 214.602 472.11 214.062 472.734 213.666C473.37 213.27 474.09 213.072 474.894 213.072C475.482 213.072 476.01 213.186 476.478 213.414C476.958 213.642 477.348 213.96 477.648 214.368C477.948 214.764 478.116 215.22 478.152 215.736V219.516C478.116 220.032 477.948 220.494 477.648 220.902C477.36 221.298 476.976 221.61 476.496 221.838C476.016 222.066 475.482 222.18 474.894 222.18ZM475.452 219.696C476.04 219.696 476.514 219.504 476.874 219.12C477.234 218.724 477.414 218.226 477.414 217.626C477.414 217.218 477.33 216.858 477.162 216.546C477.006 216.234 476.778 215.994 476.478 215.826C476.19 215.646 475.854 215.556 475.47 215.556C475.086 215.556 474.744 215.646 474.444 215.826C474.156 215.994 473.922 216.234 473.742 216.546C473.574 216.858 473.49 217.218 473.49 217.626C473.49 218.022 473.574 218.376 473.742 218.688C473.91 219 474.144 219.246 474.444 219.426C474.744 219.606 475.08 219.696 475.452 219.696ZM477.306 222V219.642L477.72 217.518L477.306 215.394V213.252H480.006V222H477.306ZM481.945 222V213.252H484.699V222H481.945ZM483.331 212.046C482.899 212.046 482.539 211.902 482.251 211.614C481.975 211.314 481.837 210.954 481.837 210.534C481.837 210.102 481.975 209.742 482.251 209.454C482.539 209.166 482.899 209.022 483.331 209.022C483.763 209.022 484.117 209.166 484.393 209.454C484.669 209.742 484.807 210.102 484.807 210.534C484.807 210.954 484.669 211.314 484.393 211.614C484.117 211.902 483.763 212.046 483.331 212.046ZM489.824 222.216C489.308 222.216 488.798 222.15 488.294 222.018C487.802 221.886 487.34 221.7 486.908 221.46C486.488 221.208 486.128 220.92 485.828 220.596L487.394 219.012C487.682 219.324 488.024 219.57 488.42 219.75C488.816 219.918 489.248 220.002 489.716 220.002C490.04 220.002 490.286 219.954 490.454 219.858C490.634 219.762 490.724 219.63 490.724 219.462C490.724 219.246 490.616 219.084 490.4 218.976C490.196 218.856 489.932 218.754 489.608 218.67C489.284 218.574 488.942 218.472 488.582 218.364C488.222 218.256 487.88 218.106 487.556 217.914C487.232 217.722 486.968 217.458 486.764 217.122C486.56 216.774 486.458 216.336 486.458 215.808C486.458 215.244 486.602 214.758 486.89 214.35C487.178 213.93 487.586 213.6 488.114 213.36C488.642 213.12 489.26 213 489.968 213C490.712 213 491.396 213.132 492.02 213.396C492.656 213.648 493.172 214.026 493.568 214.53L492.002 216.114C491.726 215.79 491.414 215.562 491.066 215.43C490.73 215.298 490.4 215.232 490.076 215.232C489.764 215.232 489.53 215.28 489.374 215.376C489.218 215.46 489.14 215.586 489.14 215.754C489.14 215.934 489.242 216.078 489.446 216.186C489.65 216.294 489.914 216.39 490.238 216.474C490.562 216.558 490.904 216.66 491.264 216.78C491.624 216.9 491.966 217.062 492.29 217.266C492.614 217.47 492.878 217.746 493.082 218.094C493.286 218.43 493.388 218.874 493.388 219.426C493.388 220.278 493.064 220.956 492.416 221.46C491.78 221.964 490.916 222.216 489.824 222.216ZM499.202 222.198C498.254 222.198 497.408 222.006 496.664 221.622C495.932 221.226 495.356 220.68 494.936 219.984C494.516 219.288 494.306 218.502 494.306 217.626C494.306 216.75 494.51 215.97 494.918 215.286C495.338 214.59 495.902 214.044 496.61 213.648C497.318 213.252 498.116 213.054 499.004 213.054C499.868 213.054 500.63 213.24 501.29 213.612C501.95 213.984 502.466 214.5 502.838 215.16C503.222 215.82 503.414 216.576 503.414 217.428C503.414 217.584 503.402 217.752 503.378 217.932C503.366 218.1 503.336 218.298 503.288 218.526L495.746 218.544V216.654L502.118 216.636L500.93 217.428C500.918 216.924 500.84 216.51 500.696 216.186C500.552 215.85 500.336 215.598 500.048 215.43C499.772 215.25 499.43 215.16 499.022 215.16C498.59 215.16 498.212 215.262 497.888 215.466C497.576 215.658 497.33 215.934 497.15 216.294C496.982 216.654 496.898 217.092 496.898 217.608C496.898 218.124 496.988 218.568 497.168 218.94C497.36 219.3 497.624 219.582 497.96 219.786C498.308 219.978 498.716 220.074 499.184 220.074C499.616 220.074 500.006 220.002 500.354 219.858C500.702 219.702 501.008 219.474 501.272 219.174L502.784 220.686C502.352 221.19 501.83 221.568 501.218 221.82C500.606 222.072 499.934 222.198 499.202 222.198ZM508.469 222.18C507.641 222.18 506.903 221.982 506.255 221.586C505.619 221.19 505.115 220.65 504.743 219.966C504.383 219.282 504.203 218.502 504.203 217.626C504.203 216.75 504.383 215.97 504.743 215.286C505.115 214.602 505.619 214.062 506.255 213.666C506.903 213.27 507.641 213.072 508.469 213.072C509.069 213.072 509.609 213.186 510.089 213.414C510.581 213.642 510.983 213.96 511.295 214.368C511.619 214.764 511.799 215.22 511.835 215.736V219.426C511.799 219.942 511.625 220.41 511.313 220.83C511.001 221.238 510.599 221.568 510.107 221.82C509.615 222.06 509.069 222.18 508.469 222.18ZM508.955 219.696C509.351 219.696 509.693 219.612 509.981 219.444C510.269 219.264 510.497 219.018 510.665 218.706C510.833 218.394 510.917 218.034 510.917 217.626C510.917 217.218 510.833 216.864 510.665 216.564C510.509 216.252 510.281 216.006 509.981 215.826C509.693 215.646 509.357 215.556 508.973 215.556C508.589 215.556 508.247 215.646 507.947 215.826C507.659 216.006 507.425 216.252 507.245 216.564C507.077 216.876 506.993 217.23 506.993 217.626C506.993 218.022 507.077 218.376 507.245 218.688C507.413 219 507.647 219.246 507.947 219.426C508.247 219.606 508.583 219.696 508.955 219.696ZM513.509 222H510.809V219.642L511.223 217.518L510.755 215.394V208.932H513.509V222ZM460.224 245V240.554H459.18V239.222H460.224V237.926H459.18V236.594H460.224V232.148H463.05L464.454 236.594H466.092V232.148H468.09V236.594H469.116V237.926H468.09V239.222H469.116V240.554H468.09V245H465.246L463.806 240.554H462.222V245H460.224ZM462.222 239.222H463.41L463.014 237.926H462.186L462.222 239.222ZM466.146 242.192H466.236L466.164 240.554H465.678L466.146 242.192ZM462.15 236.594H462.654L462.132 234.866H462.06L462.15 236.594ZM465.3 239.222H466.128L466.092 237.926H464.886L465.3 239.222ZM472.109 245V232.292H474.917V245H472.109ZM469.661 234.686V232.292H474.737V234.686H469.661ZM482.116 245.198C481.096 245.198 480.172 244.922 479.344 244.37C478.516 243.818 477.862 243.05 477.382 242.066C476.914 241.07 476.68 239.924 476.68 238.628C476.68 237.32 476.914 236.18 477.382 235.208C477.85 234.224 478.492 233.462 479.308 232.922C480.124 232.37 481.048 232.094 482.08 232.094C483.124 232.094 484.054 232.37 484.87 232.922C485.686 233.462 486.328 234.224 486.796 235.208C487.276 236.192 487.516 237.338 487.516 238.646C487.516 239.954 487.276 241.1 486.796 242.084C486.328 243.068 485.686 243.836 484.87 244.388C484.066 244.928 483.148 245.198 482.116 245.198ZM482.098 242.696C482.626 242.696 483.082 242.546 483.466 242.246C483.85 241.934 484.144 241.478 484.348 240.878C484.564 240.266 484.672 239.522 484.672 238.646C484.672 237.758 484.564 237.014 484.348 236.414C484.144 235.814 483.85 235.364 483.466 235.064C483.082 234.752 482.62 234.596 482.08 234.596C481.564 234.596 481.108 234.746 480.712 235.046C480.328 235.346 480.034 235.796 479.83 236.396C479.626 236.996 479.524 237.74 479.524 238.628C479.524 239.516 479.626 240.26 479.83 240.86C480.034 241.46 480.328 241.916 480.712 242.228C481.108 242.54 481.57 242.696 482.098 242.696ZM494.104 245.198C493.084 245.198 492.16 244.922 491.332 244.37C490.504 243.818 489.85 243.05 489.37 242.066C488.902 241.07 488.668 239.924 488.668 238.628C488.668 237.32 488.902 236.18 489.37 235.208C489.838 234.224 490.48 233.462 491.296 232.922C492.112 232.37 493.036 232.094 494.068 232.094C495.112 232.094 496.042 232.37 496.858 232.922C497.674 233.462 498.316 234.224 498.784 235.208C499.264 236.192 499.504 237.338 499.504 238.646C499.504 239.954 499.264 241.1 498.784 242.084C498.316 243.068 497.674 243.836 496.858 244.388C496.054 244.928 495.136 245.198 494.104 245.198ZM494.086 242.696C494.614 242.696 495.07 242.546 495.454 242.246C495.838 241.934 496.132 241.478 496.336 240.878C496.552 240.266 496.66 239.522 496.66 238.646C496.66 237.758 496.552 237.014 496.336 236.414C496.132 235.814 495.838 235.364 495.454 235.064C495.07 234.752 494.608 234.596 494.068 234.596C493.552 234.596 493.096 234.746 492.7 235.046C492.316 235.346 492.022 235.796 491.818 236.396C491.614 236.996 491.512 237.74 491.512 238.628C491.512 239.516 491.614 240.26 491.818 240.86C492.022 241.46 492.316 241.916 492.7 242.228C493.096 242.54 493.558 242.696 494.086 242.696ZM500.701 247.16L502.015 244.712L502.825 244.478C502.741 244.658 502.639 244.808 502.519 244.928C502.399 245.036 502.261 245.09 502.105 245.09C501.757 245.09 501.439 244.946 501.151 244.658C500.863 244.37 500.719 244.01 500.719 243.578C500.719 243.11 500.875 242.708 501.187 242.372C501.511 242.036 501.907 241.868 502.375 241.868C502.819 241.868 503.203 242.036 503.527 242.372C503.863 242.696 504.031 243.098 504.031 243.578C504.031 243.77 503.995 243.992 503.923 244.244C503.851 244.496 503.707 244.826 503.491 245.234L502.033 247.898L500.701 247.16ZM510.487 245.198C509.467 245.198 508.543 244.922 507.715 244.37C506.887 243.818 506.233 243.05 505.753 242.066C505.285 241.07 505.051 239.924 505.051 238.628C505.051 237.32 505.285 236.18 505.753 235.208C506.221 234.224 506.863 233.462 507.679 232.922C508.495 232.37 509.419 232.094 510.451 232.094C511.495 232.094 512.425 232.37 513.241 232.922C514.057 233.462 514.699 234.224 515.167 235.208C515.647 236.192 515.887 237.338 515.887 238.646C515.887 239.954 515.647 241.1 515.167 242.084C514.699 243.068 514.057 243.836 513.241 244.388C512.437 244.928 511.519 245.198 510.487 245.198ZM510.469 242.696C510.997 242.696 511.453 242.546 511.837 242.246C512.221 241.934 512.515 241.478 512.719 240.878C512.935 240.266 513.043 239.522 513.043 238.646C513.043 237.758 512.935 237.014 512.719 236.414C512.515 235.814 512.221 235.364 511.837 235.064C511.453 234.752 510.991 234.596 510.451 234.596C509.935 234.596 509.479 234.746 509.083 235.046C508.699 235.346 508.405 235.796 508.201 236.396C507.997 236.996 507.895 237.74 507.895 238.628C507.895 239.516 507.997 240.26 508.201 240.86C508.405 241.46 508.699 241.916 509.083 242.228C509.479 242.54 509.941 242.696 510.469 242.696ZM522.475 245.198C521.455 245.198 520.531 244.922 519.703 244.37C518.875 243.818 518.221 243.05 517.741 242.066C517.273 241.07 517.039 239.924 517.039 238.628C517.039 237.32 517.273 236.18 517.741 235.208C518.209 234.224 518.851 233.462 519.667 232.922C520.483 232.37 521.407 232.094 522.439 232.094C523.483 232.094 524.413 232.37 525.229 232.922C526.045 233.462 526.687 234.224 527.155 235.208C527.635 236.192 527.875 237.338 527.875 238.646C527.875 239.954 527.635 241.1 527.155 242.084C526.687 243.068 526.045 243.836 525.229 244.388C524.425 244.928 523.507 245.198 522.475 245.198ZM522.457 242.696C522.985 242.696 523.441 242.546 523.825 242.246C524.209 241.934 524.503 241.478 524.707 240.878C524.923 240.266 525.031 239.522 525.031 238.646C525.031 237.758 524.923 237.014 524.707 236.414C524.503 235.814 524.209 235.364 523.825 235.064C523.441 234.752 522.979 234.596 522.439 234.596C521.923 234.596 521.467 234.746 521.071 235.046C520.687 235.346 520.393 235.796 520.189 236.396C519.985 236.996 519.883 237.74 519.883 238.628C519.883 239.516 519.985 240.26 520.189 240.86C520.393 241.46 520.687 241.916 521.071 242.228C521.467 242.54 521.929 242.696 522.457 242.696ZM534.463 245.198C533.443 245.198 532.519 244.922 531.691 244.37C530.863 243.818 530.209 243.05 529.729 242.066C529.261 241.07 529.027 239.924 529.027 238.628C529.027 237.32 529.261 236.18 529.729 235.208C530.197 234.224 530.839 233.462 531.655 232.922C532.471 232.37 533.395 232.094 534.427 232.094C535.471 232.094 536.401 232.37 537.217 232.922C538.033 233.462 538.675 234.224 539.143 235.208C539.623 236.192 539.863 237.338 539.863 238.646C539.863 239.954 539.623 241.1 539.143 242.084C538.675 243.068 538.033 243.836 537.217 244.388C536.413 244.928 535.495 245.198 534.463 245.198ZM534.445 242.696C534.973 242.696 535.429 242.546 535.813 242.246C536.197 241.934 536.491 241.478 536.695 240.878C536.911 240.266 537.019 239.522 537.019 238.646C537.019 237.758 536.911 237.014 536.695 236.414C536.491 235.814 536.197 235.364 535.813 235.064C535.429 234.752 534.967 234.596 534.427 234.596C533.911 234.596 533.455 234.746 533.059 235.046C532.675 235.346 532.381 235.796 532.177 236.396C531.973 236.996 531.871 237.74 531.871 238.628C531.871 239.516 531.973 240.26 532.177 240.86C532.381 241.46 532.675 241.916 533.059 242.228C533.455 242.54 533.917 242.696 534.445 242.696Z" fill="#1A1A1A"/>
<path d="M426.82 199.415C426.64 198.998 426.339 198.642 425.953 198.391C425.568 198.139 425.115 198.003 424.651 198H381.347C380.725 198 380.128 198.242 379.688 198.671C379.248 199.1 379 199.682 379 200.289V253.711C379 254.318 379.248 254.9 379.688 255.329C380.128 255.758 380.725 256 381.347 256H424.653C425.275 255.999 425.871 255.758 426.312 255.329C426.752 254.9 426.999 254.318 427 253.711V200.289C427.001 199.989 426.941 199.692 426.822 199.415H426.82ZM426.477 253.711C426.477 254.183 426.284 254.636 425.942 254.969C425.599 255.303 425.135 255.491 424.651 255.492H381.347C380.863 255.492 380.399 255.304 380.056 254.97C379.714 254.636 379.521 254.183 379.521 253.711V200.289C379.522 199.817 379.715 199.365 380.057 199.031C380.399 198.697 380.863 198.509 381.347 198.509H424.653C425.017 198.51 425.373 198.617 425.675 198.817C425.977 199.016 426.211 199.299 426.348 199.629C426.374 199.695 426.397 199.762 426.416 199.83C426.458 199.98 426.479 200.134 426.479 200.289L426.477 253.711Z" fill="#3F3D56"/>
<path d="M417.897 210H404.103C403.811 210 403.53 209.895 403.323 209.707C403.116 209.52 403 209.265 403 209C403 208.735 403.116 208.48 403.323 208.293C403.53 208.105 403.811 208 404.103 208H417.897C418.189 208 418.47 208.105 418.677 208.293C418.884 208.48 419 208.735 419 209C419 209.265 418.884 209.52 418.677 209.707C418.47 209.895 418.189 210 417.897 210Z" fill="#3F3D56"/>
<path d="M417.895 215H404.105C403.96 215 403.816 214.974 403.682 214.924C403.548 214.874 403.426 214.8 403.324 214.708C403.221 214.615 403.14 214.504 403.084 214.383C403.029 214.262 403 214.131 403 214C403 213.869 403.029 213.738 403.084 213.617C403.14 213.496 403.221 213.385 403.324 213.292C403.426 213.2 403.548 213.126 403.682 213.076C403.816 213.026 403.96 213 404.105 213H417.895C418.04 213 418.184 213.026 418.318 213.076C418.452 213.126 418.574 213.2 418.676 213.292C418.779 213.385 418.86 213.496 418.916 213.617C418.971 213.738 419 213.869 419 214C419 214.131 418.971 214.262 418.916 214.383C418.86 214.504 418.779 214.615 418.676 214.708C418.574 214.8 418.452 214.874 418.318 214.924C418.184 214.974 418.04 215 417.895 215Z" fill="#3F3D56"/>
<path d="M397.814 219H388.186C387.871 219 387.57 218.872 387.348 218.646C387.125 218.419 387 218.112 387 217.791V206.209C387 205.888 387.125 205.581 387.348 205.354C387.57 205.128 387.871 205 388.186 205H397.814C398.129 205 398.43 205.128 398.652 205.354C398.875 205.581 399 205.888 399 206.209V217.791C399 218.112 398.875 218.419 398.652 218.646C398.43 218.872 398.129 219 397.814 219Z" fill="#00BFA6"/>
<path d="M416.975 227H388.025C387.753 227 387.492 226.842 387.3 226.561C387.108 226.279 387 225.898 387 225.5C387 225.102 387.108 224.721 387.3 224.439C387.492 224.158 387.753 224 388.025 224H416.975C417.247 224 417.508 224.158 417.7 224.439C417.892 224.721 418 225.102 418 225.5C418 225.898 417.892 226.279 417.7 226.561C417.508 226.842 417.247 227 416.975 227Z" fill="#CCCCCC"/>
<path d="M416.975 232H388.025C387.753 232 387.492 231.895 387.3 231.707C387.108 231.52 387 231.265 387 231C387 230.735 387.108 230.48 387.3 230.293C387.492 230.105 387.753 230 388.025 230H416.975C417.247 230 417.508 230.105 417.7 230.293C417.892 230.48 418 230.735 418 231C418 231.265 417.892 231.52 417.7 231.707C417.508 231.895 417.247 232 416.975 232Z" fill="#CCCCCC"/>
<path d="M416.974 238H388.023C387.752 237.999 387.492 237.841 387.3 237.56C387.108 237.279 387 236.897 387 236.5C387 236.103 387.108 235.721 387.3 235.44C387.492 235.159 387.752 235.001 388.023 235H416.974C417.108 235 417.242 235.038 417.366 235.114C417.491 235.189 417.604 235.299 417.699 235.439C417.795 235.578 417.87 235.743 417.922 235.926C417.973 236.108 418 236.303 418 236.5C418 236.697 417.973 236.892 417.922 237.074C417.87 237.257 417.795 237.422 417.699 237.561C417.604 237.701 417.491 237.811 417.366 237.886C417.242 237.962 417.108 238 416.974 238Z" fill="#CCCCCC"/>
<path d="M416.975 243H388.025C387.753 243 387.492 242.895 387.3 242.707C387.108 242.52 387 242.265 387 242C387 241.735 387.108 241.48 387.3 241.293C387.492 241.105 387.753 241 388.025 241H416.975C417.247 241 417.508 241.105 417.7 241.293C417.892 241.48 418 241.735 418 242C418 242.265 417.892 242.52 417.7 242.707C417.508 242.895 417.247 243 416.975 243Z" fill="#CCCCCC"/>
<path d="M416.975 248H388.025C387.753 248 387.492 247.895 387.3 247.707C387.108 247.52 387 247.265 387 247C387 246.735 387.108 246.48 387.3 246.293C387.492 246.105 387.753 246 388.025 246H416.975C417.247 246 417.508 246.105 417.7 246.293C417.892 246.48 418 246.735 418 247C418 247.265 417.892 247.52 417.7 247.707C417.508 247.895 417.247 248 416.975 248Z" fill="#CCCCCC"/>
<path d="M427 208C432.523 208 437 203.523 437 198C437 192.477 432.523 188 427 188C421.477 188 417 192.477 417 198C417 203.523 421.477 208 427 208Z" fill="#00BFA6"/>
<path d="M426.131 202C425.924 202 425.722 201.924 425.556 201.782L425.545 201.773L423.377 199.882C423.277 199.794 423.193 199.685 423.129 199.56C423.066 199.435 423.025 199.297 423.008 199.154C422.992 199.011 423 198.866 423.033 198.726C423.065 198.587 423.122 198.456 423.199 198.342C423.276 198.227 423.372 198.131 423.481 198.059C423.591 197.987 423.712 197.94 423.837 197.921C423.963 197.902 424.09 197.912 424.212 197.949C424.335 197.986 424.449 198.051 424.55 198.138L425.954 199.366L429.272 194.43C429.349 194.316 429.445 194.22 429.555 194.147C429.664 194.075 429.785 194.028 429.91 194.009C430.036 193.991 430.163 194 430.285 194.037C430.408 194.075 430.522 194.139 430.623 194.227L430.623 194.227L430.602 194.259L430.623 194.227C430.826 194.404 430.958 194.666 430.992 194.955C431.025 195.244 430.957 195.536 430.801 195.767L426.898 201.57C426.808 201.704 426.692 201.812 426.559 201.886C426.426 201.961 426.28 201.999 426.132 201.999L426.131 202Z" fill="white"/>
</g>
<defs>
<filter id="filter0_d_218_1657" x="135.737" y="60" width="406.516" height="470" filterUnits="userSpaceOnUse" color-interpolation-filters="sRGB">
<feFlood flood-opacity="0" result="BackgroundImageFix"/>
<feColorMatrix in="SourceAlpha" type="matrix" values="0 0 0 0 0 0 0 0 0 0 0 0 0 0 0 0 0 0 127 0" result="hardAlpha"/>
<feOffset dy="8"/>
<feGaussianBlur stdDeviation="10"/>
<feColorMatrix type="matrix" values="0 0 0 0 0.0117647 0 0 0 0 0.0235294 0 0 0 0 0.0431373 0 0 0 0.08 0"/>
<feBlend mode="normal" in2="BackgroundImageFix" result="effect1_dropShadow_218_1657"/>
<feBlend mode="normal" in="SourceGraphic" in2="effect1_dropShadow_218_1657" result="shape"/>
</filter>
<filter id="filter1_d_218_1657" x="2.99609" y="90" width="346.237" height="129.593" filterUnits="userSpaceOnUse" color-interpolation-filters="sRGB">
<feFlood flood-opacity="0" result="BackgroundImageFix"/>
<feColorMatrix in="SourceAlpha" type="matrix" values="0 0 0 0 0 0 0 0 0 0 0 0 0 0 0 0 0 0 127 0" result="hardAlpha"/>
<feOffset dy="8"/>
<feGaussianBlur stdDeviation="10"/>
<feColorMatrix type="matrix" values="0 0 0 0 0.0117647 0 0 0 0 0.0235294 0 0 0 0 0.0431373 0 0 0 0.08 0"/>
<feBlend mode="normal" in2="BackgroundImageFix" result="effect1_dropShadow_218_1657"/>
<feBlend mode="normal" in="SourceGraphic" in2="effect1_dropShadow_218_1657" result="shape"/>
</filter>
<filter id="filter2_d_218_1657" x="320.69" y="149.043" width="312.696" height="170.783" filterUnits="userSpaceOnUse" color-interpolation-filters="sRGB">
<feFlood flood-opacity="0" result="BackgroundImageFix"/>
<feColorMatrix in="SourceAlpha" type="matrix" values="0 0 0 0 0 0 0 0 0 0 0 0 0 0 0 0 0 0 127 0" result="hardAlpha"/>
<feOffset dy="8"/>
<feGaussianBlur stdDeviation="10"/>
<feColorMatrix type="matrix" values="0 0 0 0 0.121569 0 0 0 0 0.160784 0 0 0 0 0.215686 0 0 0 0.12 0"/>
<feBlend mode="normal" in2="BackgroundImageFix" result="effect1_dropShadow_218_1657"/>
<feBlend mode="normal" in="SourceGraphic" in2="effect1_dropShadow_218_1657" result="shape"/>
</filter>
<radialGradient id="paint0_radial_218_1657" cx="0" cy="0" r="1" gradientUnits="userSpaceOnUse" gradientTransform="translate(534.805 109.468) rotate(100.666) scale(562.905 503.886)">
<stop stop-color="#15B79E"/>
<stop offset="1" stop-color="#15B79E" stop-opacity="0"/>
</radialGradient>
<radialGradient id="paint1_radial_218_1657" cx="0" cy="0" r="1" gradientUnits="userSpaceOnUse" gradientTransform="translate(512.412 132.968) rotate(100.688) scale(440.567 395.176)">
<stop stop-color="#15B79E"/>
<stop offset="1" stop-color="#15B79E" stop-opacity="0"/>
</radialGradient>
<radialGradient id="paint2_radial_218_1657" cx="0" cy="0" r="1" gradientUnits="userSpaceOnUse" gradientTransform="translate(490.148 155.528) rotate(100.57) scale(322.956 286.614)">
<stop stop-color="#14B8A6"/>
<stop offset="1" stop-color="#15B79E" stop-opacity="0"/>
</radialGradient>
<linearGradient id="paint3_linear_218_1657" x1="338.996" y1="359.521" x2="338.996" y2="397.216" gradientUnits="userSpaceOnUse">
<stop stop-color="#6AD390"/>
<stop offset="1" stop-color="#1A1A1A"/>
</linearGradient>
<clipPath id="clip0_218_1657">
<rect width="624" height="536" fill="white"/>
</clipPath>
</defs>
</svg>
